# xmcd
#
# Track frame offsets:
#	150
#	21684
#	38230
#	58277
#	77427
#	94508
#	110572
#	132008
#	153920
#	173765
#	195883
#	215664
#	234565
#	256132
#	275066
#	304080
#
# Disc length: 4356 seconds
#
# Revision: 2
# Processed by: cddbd v1.5.2PL0 Copyright (c) Steve Scherf et al.
# Submitted via: EZCDDA 4.3.2
#
DISCID=d7110210
DTITLE=Chayanne - Grandes Exitos
DYEAR=1900
DGENRE=
TTITLE0=Y Tú Te Vas
TTITLE1=Torero
TTITLE2=Quisiera ser
TTITLE3=Mira ven ven
TTITLE4=Ay mamá
TTITLE5=Enamorado
TTITLE6=Dejaría todo
TTITLE7=Yo te amo
TTITLE8=Salomé
TTITLE9=Volver a nacer
TTITLE10=Baila Baila [Memê's Boriqua Radio Edit]
TTITLE11=Tiempo de vals
TTITLE12=Fuiste un trozo de hielo en la escarcha
TTITLE13=Provócame
TTITLE14=Fiesta en América
TTITLE15=Atado a tu amor
EXTD=
EXTT0=
EXTT1=
EXTT2=
EXTT3=
EXTT4=
EXTT5=
EXTT6=
EXTT7=
EXTT8=
EXTT9=
EXTT10=
EXTT11=
EXTT12=
EXTT13=
EXTT14=
EXTT15=
PLAYORDER=
